<?xml version="1.0" encoding="utf-8"?>
<!-- Generator: Adobe Illustrator 23.0.2, SVG Export Plug-In . SVG Version: 6.00 Build 0)  -->
<svg version="1.1" id="Camada_1" xmlns="http://www.w3.org/2000/svg" xmlns:xlink="http://www.w3.org/1999/xlink" x="0px" y="0px"
	 viewBox="0 0 500 500" style="enable-background:new 0 0 500 500;" xml:space="preserve">
<style type="text/css">
	.st0{fill:#FEFEFE;}
	.st1{fill:#439F47;}
	.st2{fill:#016839;}
	.st3{fill:#016838;}
</style>
<g>
	<path class="st0" d="M251.5,494c-81.83,0-163.67-0.03-245.5,0.1c-3.42,0.01-4.1-0.67-4.09-4.1c0.11-164,0.11-328,0-492
		C1.9-5.42,2.58-6.1,6-6.09c164,0.11,328,0.11,492,0c3.42,0,4.1,0.67,4.1,4.09c-0.11,164-0.11,328,0,492c0,3.42-0.67,4.1-4.09,4.1
		C415.83,493.97,333.67,494,251.5,494z"/>
	<path class="st1" d="M314.56,192.04c2.83,0,5.68-0.22,8.49,0.04c12.35,1.15,20.53,8.56,22.99,20.7c1.51,7.44,1.54,14.91-0.13,22.31
		c-2.29,10.15-8.3,16.89-18.67,19.21c-8.23,1.84-16.54,1.82-24.78,0.18c-11.02-2.21-17.32-9.21-19.56-20.08
		c-1.5-7.27-1.52-14.55,0.02-21.81c2.6-12.2,10.68-19.4,23.15-20.53c2.81-0.25,5.66-0.04,8.49-0.04
		C314.56,192.02,314.56,192.03,314.56,192.04z"/>
	<path class="st1" d="M383.73,191.98c2.5,0,5.01-0.15,7.49,0.03c13.02,0.93,21.23,7.96,23.97,20.77c1.62,7.57,1.59,15.24-0.21,22.78
		c-2.42,10.16-8.64,16.68-19.01,18.85c-8.08,1.69-16.24,1.71-24.3,0.1c-10.78-2.15-17.13-9.03-19.52-19.6
		c-1.72-7.58-1.67-15.23,0-22.8c2.58-11.71,10.92-18.94,23.09-20.05c2.81-0.26,5.66-0.04,8.49-0.04
		C383.73,192.01,383.73,191.99,383.73,191.98z"/>
	<path class="st1" d="M129.64,217.16c-1.33,0-5.31-0.16-6.64-0.16c-4,0-4.06-0.02-5.3-4.7c-0.94-3.56-4.21-5.27-8.17-5.34
		c-4.61-0.08-8.35,1.57-10.27,5.7c-3.4,7.32-3.25,14.89,0.06,22.21c1.84,4.06,5.49,5.48,9.9,5.3c4.31-0.17,7.65-2.11,8.71-6.17
		c1.02-3.91,3.08-4,6.53-4.05c4.32-0.06,8.54,0.05,12.98,0.02c2.43-0.02,3.42,0.21,2.89,3.24c-2.33,13.36-9.79,20.48-23.33,21.89
		c-5.49,0.57-10.94,0.56-16.42-0.06c-12.33-1.39-20.05-8.2-22.69-20.37c-1.64-7.58-1.63-15.22,0.12-22.77
		c2.4-10.34,8.6-17.13,19.26-19.13c8.41-1.57,16.91-1.74,25.24,0.35c10.09,2.53,17.11,11.32,18.05,21.55
		c0.21,2.27-0.71,2.51-2.44,2.49C135.3,217.13,132.47,217.16,129.64,217.16z"/>
	<path class="st1" d="M266.96,217.16c-1.66,0-3.34-0.14-4.99,0.03c-3.46,0.36-5.82-0.16-6.86-4.28c-0.96-3.82-4.09-5.82-8.28-5.94
		c-4.58-0.12-8.39,1.37-10.35,5.54c-3.51,7.47-3.41,15.19,0.14,22.62c1.92,4.03,5.67,5.3,10.05,5.04c4.11-0.25,7.23-2.21,8.31-6.01
		c1.05-3.7,3.09-4.38,6.46-4.21c4.65,0.24,9.32,0.11,13.98,0.04c1.91-0.03,2.47,0.42,2.19,2.57c-1.73,13.21-9.94,21.15-23.31,22.54
		c-6.33,0.66-12.65,0.77-18.89-0.37c-12.15-2.22-19.13-9.89-21.04-23.32c-0.96-6.77-0.85-13.65,0.91-20.32
		c2.78-10.55,9.68-16.99,20.42-18.62c7.55-1.15,15.25-1.34,22.82,0.42c10.84,2.53,17.96,10.71,19.17,21.61
		c0.22,2.01-0.21,2.74-2.22,2.68C272.62,217.09,269.79,217.15,266.96,217.16z"/>
	<path class="st1" d="M22.44,223.54c0-8.66,0.08-17.32-0.05-25.98c-0.04-2.71,0.65-3.81,3.61-3.78c14.66,0.13,29.32,0.1,43.97,0.03
		c2.28-0.01,3.11,0.6,3.26,3.05c0.7,11.72,0.78,11.71-10.63,11.71c-5.83,0-11.66,0.14-17.49-0.05c-2.99-0.1-3.6,1.2-3.61,3.86
		c-0.01,2.64,0.53,3.91,3.55,3.84c7.49-0.18,14.99,0.02,22.48-0.1c2.47-0.04,3.44,0.53,3.54,3.28C71.52,231,71.63,231,59.99,231
		c-4.83,0-9.67,0.17-14.49-0.06c-2.98-0.14-4.13,0.66-4.03,3.84c0.09,2.85,0.59,4.22,3.87,4.13c7.99-0.22,15.99,0.07,23.98-0.14
		c3.13-0.08,3.89,0.92,3.91,3.95c0.08,10.85,0.2,10.85-10.5,10.85c-11.66,0-23.33-0.24-34.98,0.12c-4.62,0.14-5.59-1.41-5.42-5.66
		C22.66,239.88,22.43,231.71,22.44,223.54z"/>
	<path class="st1" d="M422.84,223.32c0-8.48,0.16-16.97-0.08-25.44c-0.09-3.36,1.06-4.15,4.23-4.11
		c12.14,0.17,24.28-0.04,36.42,0.11c8.9,0.1,13.76,4.24,15.86,12.85c1.08,4.44,1.11,8.95,0.36,13.36
		c-1.66,9.86-7.48,14.72-17.51,14.89c-5.65,0.1-11.31,0.14-16.96-0.04c-2.63-0.08-3.68,0.78-3.34,3.39c0.11,0.82,0.08,1.67,0,2.49
		c-0.37,4.07,1.94,10.07-0.92,11.81c-4.44,2.71-10.65,0.77-16.1,0.85c-2.65,0.04-1.93-2.22-1.94-3.72
		C422.81,240.95,422.84,232.14,422.84,223.32z"/>
	<path class="st2" d="M202.67,252.12L184,253c0,0,1.02-2.42,1.41-3.36c1.96-4.73,3.77-9.51,5.71-14.46
		c2.03,2.22,3.89,4.81,3.89,4.81s2.28-3.83,3.35-5.91C203,225,198,216,198,216l-2-5l6-3c0,0,0.88,1.73,1.52,3.12
		C208,221,210,230,203,241c-1.45,1.89-4,4-4,4L202.67,252.12z"/>
	<path class="st2" d="M190.06,190.88c3.63,5.85,6.72,10.82,10.16,16.38C193.95,208.11,182,210,182,210l3-6c0,0-5.84-1.45-9-1
		c-6.55,0.92-11.03,5.34-13.69,11.34C161.68,215.77,161,217,161,217s-3.41-1.47-4.87-1.9c-1.63-0.47-3.13-1.1-3.13-1.1
		s1.48-2.52,1.93-3.42c4.93-9.92,15.29-15.9,26.58-14.67c1.99,0.22,6.48,1.09,6.48,1.09S189,194,190.06,190.88z"/>
	<path class="st3" d="M145.25,231.96c3.5-5.3,6.67-10.11,10.2-15.46c3.36,5.2,6.48,9.74,9.55,14.49c-6,1-5,1-5,1
		s2.16,6.74,2.57,7.38c3.58,5.54,8.83,8.37,15.42,8.52c1.39,0.03,3.01,0.09,3.01,0.09s-0.11,1.78,0,5c0.04,1.13,0,3,0,3
		s-1.81,0.14-3.26,0.14c-10.96-0.01-21.2-7.38-24.91-18.16C151.87,235.2,151,232,151,232L145.25,231.96z"/>
	<path class="st0" d="M326.79,223.25c0.33,2.86-0.22,5.65-0.94,8.37c-1.43,5.37-5.38,8.39-10.83,8.53
		c-6.09,0.16-9.96-2.37-11.74-7.94c-1.76-5.52-1.76-11.13-0.2-16.69c1.63-5.84,5.59-8.63,11.82-8.52c5.74,0.1,9.63,3.15,11.04,8.87
		C326.53,218.27,327.15,220.72,326.79,223.25z"/>
	<path class="st0" d="M395.98,223.94c0.24,3.03-0.25,6.14-1.43,9.1c-2,5.04-5.6,7.2-11.33,7.12c-5.27-0.07-8.81-2.51-10.54-7.49
		c-1.86-5.32-1.94-10.73-0.66-16.18c1.49-6.31,5.38-9.48,11.57-9.5c6.32-0.02,9.86,2.9,11.63,9.38
		C395.9,218.83,396.06,221.28,395.98,223.94z"/>
	<path class="st0" d="M448.24,220.02c-1.46-0.41-5.06,1.53-5.97-0.85c-1.11-2.89-0.34-6.51-0.32-9.81c0-1.05,0.81-1.34,1.7-1.33
		c4.13,0.03,8.29-0.2,12.38,0.23c3.49,0.37,4.2,3.2,4.13,6.3c-0.07,3.09-1.42,5.11-4.59,5.42
		C453.43,220.18,451.27,220.02,448.24,220.02z"/>
</g>
</svg>
